<?xml version="1.0" encoding="UTF-8" standalone="no"?>
<svg
   xmlns:dc="http://purl.org/dc/elements/1.1/"
   xmlns:cc="http://creativecommons.org/ns#"
   xmlns:rdf="http://www.w3.org/1999/02/22-rdf-syntax-ns#"
   xmlns:svg="http://www.w3.org/2000/svg"
   xmlns="http://www.w3.org/2000/svg"
   xmlns:sodipodi="http://sodipodi.sourceforge.net/DTD/sodipodi-0.dtd"
   xmlns:inkscape="http://www.inkscape.org/namespaces/inkscape"
   width="58.809921mm"
   height="58.322128mm"
   viewBox="0 0 58.809921 58.322128"
   version="1.1"
   id="svg8"
   inkscape:version="1.0.2 (1.0.2+r75+1)"
   sodipodi:docname="OL-Icon.svg">
  <defs
     id="defs2">
    <inkscape:path-effect
       effect="bspline"
       id="path-effect4736"
       is_visible="true"
       weight="33.333333"
       steps="2"
       helper_size="0"
       apply_no_weight="true"
       apply_with_weight="true"
       only_selected="false"
       lpeversion="0" />
    <clipPath
       clipPathUnits="userSpaceOnUse"
       id="clipPath51">
      <rect
         style="fill:#0000ff;fill-rule:evenodd;stroke-width:0.264583"
         id="rect53"
         width="58.847389"
         height="63.140472"
         x="89.66642"
         y="51.339981" />
    </clipPath>
    <clipPath
       clipPathUnits="userSpaceOnUse"
       id="clipPath55">
      <rect
         style="fill:#0000ff;fill-rule:evenodd;stroke-width:0.264583"
         id="rect57"
         width="58.847389"
         height="63.140472"
         x="89.66642"
         y="51.339981" />
    </clipPath>
    <clipPath
       clipPathUnits="userSpaceOnUse"
       id="clipPath59">
      <rect
         style="fill:#0000ff;fill-rule:evenodd;stroke-width:0.264583"
         id="rect61"
         width="58.847389"
         height="63.140472"
         x="89.66642"
         y="51.339981" />
    </clipPath>
    <clipPath
       clipPathUnits="userSpaceOnUse"
       id="clipPath63">
      <rect
         style="fill:#0000ff;fill-rule:evenodd;stroke-width:0.264583"
         id="rect65"
         width="58.847389"
         height="63.140472"
         x="90.724754"
         y="50.281651" />
    </clipPath>
  </defs>
  <sodipodi:namedview
     id="base"
     pagecolor="#ffffff"
     bordercolor="#666666"
     borderopacity="1.0"
     inkscape:pageopacity="0.0"
     inkscape:pageshadow="2"
     inkscape:zoom="1.7791439"
     inkscape:cx="211.37903"
     inkscape:cy="100.08325"
     inkscape:document-units="mm"
     inkscape:current-layer="layer1"
     showgrid="false"
     showguides="true"
     inkscape:guide-bbox="true"
     inkscape:window-width="1920"
     inkscape:window-height="1043"
     inkscape:window-x="1920"
     inkscape:window-y="0"
     inkscape:window-maximized="1"
     inkscape:document-rotation="0">
    <sodipodi:guide
       position="91.283821,139.04281"
       orientation="1,0"
       id="guide4606"
       inkscape:locked="false" />
    <sodipodi:guide
       position="75.529961,76.001572"
       orientation="1,0"
       id="guide4565"
       inkscape:locked="false" />
    <sodipodi:guide
       position="27.03965,163.49857"
       orientation="1,0"
       id="guide4567"
       inkscape:locked="false" />
    <sodipodi:guide
       position="126.36678,163.49857"
       orientation="0,1"
       id="guide4569"
       inkscape:locked="false" />
    <sodipodi:guide
       position="91.815591,179.2802"
       orientation="0,1"
       id="guide4571"
       inkscape:locked="false" />
  </sodipodi:namedview>
  <metadata
     id="metadata5">
    <rdf:RDF>
      <cc:Work
         rdf:about="">
        <dc:format>image/svg+xml</dc:format>
        <dc:type
           rdf:resource="http://purl.org/dc/dcmitype/StillImage" />
        <dc:title></dc:title>
      </cc:Work>
    </rdf:RDF>
  </metadata>
  <g
     inkscape:groupmode="layer"
     id="layer2"
     inkscape:label="Mondphasen/ Punkte"
     transform="translate(-90.20947,-142.84724)"
     style="display:inline" />
  <g
     inkscape:groupmode="layer"
     id="layer4"
     inkscape:label="Äußere Kreise"
     transform="translate(-90.20947,-142.84724)"
     style="display:inline">
    <path
       style="display:inline;opacity:1;fill:#ffffff;fill-opacity:1;stroke:none;stroke-width:7.90078;stroke-linecap:square;stroke-linejoin:miter;stroke-miterlimit:4;stroke-dasharray:none;stroke-dashoffset:0;stroke-opacity:1"
       d="m 562.75977,212.23047 c -0.12724,0.033 -0.21608,0.0814 -0.26758,0.14453 0.0506,0.21974 0.11574,0.47124 0.15234,0.5957 0.0158,-0.1576 0.0362,-0.31656 0.0684,-0.47851 0.0113,-0.0873 0.0335,-0.17424 0.0469,-0.26172 z"
       transform="matrix(0.26458333,0,0,0.26458333,0,87)"
       id="path1297" />
    <path
       style="display:inline;opacity:1;fill:#ffffff;fill-opacity:1;stroke:none;stroke-width:7.90078;stroke-linecap:square;stroke-linejoin:miter;stroke-miterlimit:4;stroke-dasharray:none;stroke-dashoffset:0;stroke-opacity:1"
       d="m 561.3125,211.07617 v 2.48242 h 1.30078 c 5.4e-4,-0.19019 0.0106,-0.3801 0.0293,-0.57226 -0.18061,-0.247 -0.26816,-0.46696 -0.15039,-0.61133 -0.0564,-0.24502 -0.0947,-0.42514 -0.21289,-0.87109 0.0385,0.38575 0.25016,0.79476 0.11523,1.1582 -0.0663,0.17843 -0.28133,-0.26089 -0.38867,-0.41797 -0.11808,-0.17256 -0.43342,-0.65413 -0.69336,-1.16797 z"
       transform="matrix(0.26458333,0,0,0.26458333,0,87)"
       id="rect4520" />
  </g>
  <g
     inkscape:groupmode="layer"
     id="layer1"
     inkscape:label="Kreisviertel"
     style="display:inline"
     transform="translate(-90.20947,-55.847236)">
    <path
       style="display:inline;opacity:1;fill:#000000;fill-opacity:1;stroke:#ffffff;stroke-width:1.25631;stroke-linecap:square;stroke-linejoin:miter;stroke-miterlimit:4;stroke-dasharray:none;stroke-dashoffset:0;stroke-opacity:1"
       d="m 343.17578,430.80469 c -0.0211,0.009 -0.0284,0.0245 -0.0254,0.0449 h 0.10547 c -0.0262,-0.0158 -0.054,-0.0289 -0.0801,-0.0449 z"
       transform="scale(0.26458333)"
       id="path1197" />
    <path
       style="display:inline;opacity:1;fill:#000000;fill-opacity:1;stroke:#ffffff;stroke-width:1.25631;stroke-linecap:square;stroke-linejoin:miter;stroke-miterlimit:4;stroke-dasharray:none;stroke-dashoffset:0;stroke-opacity:1"
       d="m 343.05273,430.47852 a 218.58445,218.58445 0 0 0 0,0.24414 c 0.0413,0.0268 0.081,0.0563 0.12305,0.082 0.0529,-0.0216 0.18526,0.004 0.33594,0.0449 h 0.21875 c -0.0181,-0.0353 -0.0351,-0.0713 -0.0586,-0.10352 -0.0966,-0.13205 -0.37796,-0.2192 -0.61915,-0.26757 z"
       transform="scale(0.26458333)"
       id="path1195" />
    <path
       style="display:inline;opacity:1;fill:#000000;fill-opacity:1;stroke:#ffffff;stroke-width:1.25631;stroke-linecap:square;stroke-linejoin:miter;stroke-miterlimit:4;stroke-dasharray:none;stroke-dashoffset:0;stroke-opacity:1"
       d="m 562.58984,212.29688 c -0.0373,0.0242 -0.0738,0.0488 -0.0976,0.0781 0.0315,0.13696 0.0622,0.24365 0.0957,0.37109 z"
       transform="scale(0.26458333)"
       id="path1307" />
    <path
       style="display:inline;opacity:1;fill:#000000;fill-opacity:1;stroke:#ffffff;stroke-width:1.25631;stroke-linecap:square;stroke-linejoin:miter;stroke-miterlimit:4;stroke-dasharray:none;stroke-dashoffset:0;stroke-opacity:1"
       d="m 561.3457,212.26562 a 218.58445,218.58445 0 0 0 -153.93359,63.68555 218.58445,218.58445 0 0 0 -64.35938,154.21289 c 0.29206,0.0872 0.50665,0.2971 0.76954,0.68555 h 217.8164 l 0.94922,-217.96289 c -0.12899,-0.20368 -0.19658,-0.38806 -0.0957,-0.51172 -0.007,-0.0302 -0.0188,-0.0786 -0.0254,-0.10742 a 218.58445,218.58445 0 0 0 -0.043,0 c 0.0153,0.13505 0.0178,0.26765 -0.0293,0.39453 -0.0641,0.17229 -0.26449,-0.22513 -0.375,-0.39453 a 218.58445,218.58445 0 0 0 -0.67383,-0.002 z"
       transform="scale(0.26458333)"
       id="path4626-3" />
  </g>
  <g
     inkscape:groupmode="layer"
     id="layer3"
     inkscape:label="Mond im Kreis"
     style="display:inline"
     transform="translate(-90.20947,-55.847236)">
    <g
       id="g4668"
       transform="translate(-1.0583333,1.0583333)"
       clip-path="url(#clipPath63)">
      <path
         transform="scale(-1,1)"
         sodipodi:open="true"
         d="m -174.51079,96.185968 a 7.5,7.5 0 0 1 -6.57226,-3.695345 7.5,7.5 0 0 1 -0.0395,-7.539801 7.5,7.5 0 0 1 6.53318,-3.76401"
         sodipodi:end="4.7163734"
         sodipodi:start="1.5563331"
         sodipodi:ry="7.5"
         sodipodi:rx="7.5"
         sodipodi:cy="88.686752"
         sodipodi:cx="-174.61926"
         sodipodi:type="arc"
         id="path4738-2-0-7"
         style="display:inline;opacity:1;fill:#ffffff;fill-opacity:1;stroke:none;stroke-width:0.733839;stroke-linecap:round;stroke-linejoin:miter;stroke-miterlimit:4;stroke-dasharray:none;stroke-dashoffset:0;stroke-opacity:1"
         sodipodi:arc-type="arc" />
      <circle
         transform="scale(-1,1)"
         r="7.5"
         cy="88.476883"
         cx="-174.80794"
         id="path4738-3-8-7-2"
         style="display:inline;opacity:1;fill:none;fill-opacity:1;stroke:#ffffff;stroke-width:0.733839;stroke-linecap:round;stroke-linejoin:miter;stroke-miterlimit:4;stroke-dasharray:none;stroke-dashoffset:0;stroke-opacity:1" />
    </g>
    <circle
       style="display:inline;opacity:1;fill:#ffffff;fill-opacity:1;stroke:none;stroke-width:0.733839;stroke-linecap:round;stroke-linejoin:miter;stroke-miterlimit:4;stroke-dasharray:none;stroke-dashoffset:0;stroke-opacity:1"
       id="path4738-4"
       cx="124.58655"
       cy="89.098137"
       r="7.5"
       clip-path="url(#clipPath59)" />
    <g
       id="g4672"
       clip-path="url(#clipPath55)">
      <path
         sodipodi:open="true"
         d="m 125.10997,147.01409 a 7.5,7.5 0 0 1 -6.57226,-3.69534 7.5,7.5 0 0 1 -0.0395,-7.5398 7.5,7.5 0 0 1 6.53318,-3.76401"
         sodipodi:end="4.7163734"
         sodipodi:start="1.5563331"
         sodipodi:ry="7.5"
         sodipodi:rx="7.5"
         sodipodi:cy="139.51488"
         sodipodi:cx="125.0015"
         sodipodi:type="arc"
         id="path4738-2-09"
         style="display:inline;opacity:1;fill:#ffffff;fill-opacity:1;stroke:none;stroke-width:0.733839;stroke-linecap:round;stroke-linejoin:miter;stroke-miterlimit:4;stroke-dasharray:none;stroke-dashoffset:0;stroke-opacity:1"
         sodipodi:arc-type="arc" />
      <circle
         r="7.5"
         cy="139.82932"
         cx="124.81283"
         id="path4738-3-8-1"
         style="display:inline;opacity:1;fill:none;fill-opacity:1;stroke:#ffffff;stroke-width:0.733839;stroke-linecap:round;stroke-linejoin:miter;stroke-miterlimit:4;stroke-dasharray:none;stroke-dashoffset:0;stroke-opacity:1" />
    </g>
    <circle
       style="display:inline;opacity:1;fill:none;fill-opacity:1;stroke:#ffffff;stroke-width:0.733839;stroke-linecap:round;stroke-linejoin:miter;stroke-miterlimit:4;stroke-dasharray:none;stroke-dashoffset:0;stroke-opacity:1"
       id="path4738-3-85"
       cx="174.16998"
       cy="139.83505"
       r="7.5"
       clip-path="url(#clipPath51)" />
  </g>
  <g
     inkscape:groupmode="layer"
     id="layer5"
     inkscape:label="Schrift / Trajan Pro"
     style="display:inline"
     transform="translate(-90.20947,-55.847236)" />
</svg>
